#!OML:ASF F:\VICON\USERDATA\INSTALL\rory3\rory3.ASF
:FULLY-SPECIFIED
:DEGREES
92
root -0.17325454200093482 17.728580359376856 33.61403583787299 -1.17740605746101 -4.010156783880305 -8.175562709230876
lfemur -28.21087337939278 -4.3142245016197585 -9.023427064793049
ltibia 26.925237458567853
lfoot -5.591893079408371 0.5834158341596618
ltoes -8.4749478212671
rfemur 1.703172870662316 6.202092132914952 36.043933728169165
rtibia 29.55410527068493
rfoot -13.247168949152448 -4.267132006556471
rtoes 6.2408722150940585
lowerback 1.0 1.839033783886041 6.004836397797819
upperback 0.3044541088442133 3.3241476771646323 2.2285117292654624
thorax -4.866990371540425 1.5574422945886637 -1.7568716272385523
lowerneck -15.997188117377556 -2.748794867989834 -1.6741211796658666
upperneck 18.929939830507337 -3.656002600219174 1.1038485623101104
head 8.667447915581604 -1.689838675514419 0.15023358480780652
lclavicle -9.53795067632183e-16 -2.926670809415796e-15
lhumerus -35.15158481649293 8.953012719814478 80.19208639890348
lradius 18.989890481535635
lwrist -0.6869105396206852
lhand -27.153213001572617 23.340888424230684
lfingers nan
lthumb -0.5532284496133457 53.38994726628924
rclavicle -6.981270522551429e-16 -2.5994902252070866e-15
rhumerus -26.198816419858368 -15.687431864260773 -80.88797912976104
rradius 23.52886945473156
rwrist -0.24434249465907776
rhand -18.47777495282775 1.0
rfingers nan
rthumb 7.7674611497990345 -6.841358446984699
93
root -0.13618562604945927 17.666576388981003 34.463247462583105 -0.7089274052868548 -4.506745575002747 -8.193031549199587
lfemur -26.865514846180638 -7.391390529575459 -8.06666318201438
ltibia 17.085430008179316
lfoot -5.502799116549276 -0.07822761431192271
ltoes -9.669943475231651
rfemur 4.089714534823125 6.407960524921707 35.89074292039972
rtibia 28.76568565106657
rfoot -13.172045338052069 -4.424619246828568
rtoes 4.90409091209878
lowerback 1.0 2.00829997826105 6.106092512081691
upperback 0.24346705167908567 3.5425926424150007 2.2086819851875683
thorax -4.823104468449263 1.6649602274963828 -1.8434389686195056
lowerneck -16.00523469596715 -2.831560234587694 -1.67985641303112
upperneck 18.891849877038513 -3.8182593973612127 1.206873999861611
head 8.62391328481208 -1.739283049283177 0.16797947699722587
lclavicle -9.32587278815282e-16 -2.876874468395895e-15
lhumerus -35.425093731459945 9.806678460680274 79.71004461469053
lradius 17.908284018588358
lwrist -1.766531150064497
lhand -26.831135790437195 23.839785392561332
lfingers nan
lthumb -0.13738845050578374 54.07072474273857
rclavicle -6.27228182251554e-16 -2.5125622043443224e-15
rhumerus -25.433210355683997 -15.204925815085302 -81.15186306661923
rradius 23.724472987870847
rwrist -0.21213941692423255
rhand -18.604417836406757 1.0
rfingers nan
rthumb 7.738223577555338 -6.694944395092989
94
root -0.08726984527039161 17.630420465654634 35.297006252776576 -0.5989884702858705 -4.740146832714255 -7.911455332461259
lfemur -26.24372181650199 -7.172673552136349 -8.98796268492867
ltibia 13.822396326247986
lfoot -7.0203444797533345 -0.1675617525429316
ltoes -9.400564249156883
rfemur 6.090783607349794 6.647456668485641 35.21885731071244
rtibia 29.102625478338606
rfoot -13.284177718804202 -4.155856660061786
rtoes 3.2452166689978243
lowerback 1.0 2.078874924446453 5.892840129575133
upperback 0.23992475026771778 3.6206081751122468 2.134139486246659
thorax -4.751522633164743 1.7185670852227297 -1.7976990029294828
lowerneck -15.954593360833826 -2.926138751440917 -1.7203087402020778
upperneck 18.931780443877155 -3.997900361192091 1.328580219443665
head 8.59672233575702 -1.7966247131587434 0.1956952498745595
lclavicle -9.214895020880241e-16 -2.8381632480682837e-15
lhumerus -35.627632553044776 10.382680612233216 79.32380536095272
lradius 17.16218727719755
lwrist -2.651755890544561
lhand -26.390302787727517 24.459275494854175
lfingers nan
lthumb 0.3768212380176583 54.83822367906402
rclavicle -5.810167757900587e-16 -2.445362694665312e-15
rhumerus -24.85111032362473 -14.964692913151762 -81.33147091360793
rradius 23.644853447958546
rwrist 0.22677862270930582
rhand -18.69228244937416 1.0
rfingers nan
rthumb 7.685367245150901 -6.637027376921986
95
root -0.02606068456129973 17.590161410834803 36.301673828357856 -0.8686070280623952 -4.7732480448217265 -7.342416689411532
lfemur -26.142141388805356 -5.0335896140381085 -10.850097771478543
ltibia 17.078532408560132
lfoot -7.394860967254652 -0.005863011533538742
ltoes -7.5342232520622066
rfemur 7.582094780636082 6.473472779216198 34.03308540303602
rtibia 30.99758798092597
rfoot -13.004837427412905 -3.568849390027147
rtoes 1.5907423866429622
lowerback 1.0 2.1023557621935365 5.438917886014464
upperback 0.2508888636889393 3.5960915492486185 2.002545600389936
thorax -4.744682302722144 1.7282888776131673 -1.639951270166638
lowerneck -15.85709994065176 -3.005311112330439 -1.7407472499466343
upperneck 19.0353603355987 -4.150386240163398 1.4221968944026233
head 8.585498469868895 -1.8491435815041926 0.21989273534065146
lclavicle -8.610804636266419e-16 -2.765340815956049e-15
lhumerus -35.7279867837045 10.650873860627105 79.07172877379102
lradius 16.81397629526608
lwrist -3.0273949744265845
lhand -26.060913944800465 24.788953269503672
lfingers nan
lthumb 0.7019596111102084 55.17976878428485
rclavicle -5.036924157076579e-16 -2.363071274646758e-15
rhumerus -24.557215089627128 -14.99980630161606 -81.42772591529715
rradius 23.35534279210482
rwrist 0.9710020575575431
rhand -18.73686250638947 1.0
rfingers nan
rthumb 7.69417707144023 -6.578285602736308
96
root 0.036710719391109925 17.519841585559096 37.30284813650416 -1.436035960771918 -4.886667625133295 -6.618985342193744
lfemur -26.34468936340601 -3.9623555169009066 -12.770834025797646
ltibia 22.546734157092587
lfoot -6.388398358508756 -0.8457967587189061
ltoes -4.60111765975938
rfemur 7.482414009696667 5.838638838236813 32.49394027689072
rtibia 35.66180046326686
rfoot -11.351277689753124 -2.541478239504511
rtoes 1.0713051367884172
lowerback 1.0 2.1643708783075066 4.934984806627418
upperback 0.2687529934559042 3.582217542778518 1.8465635233619129
thorax -4.782233323999368 1.725119611106298 -1.4899977544894079
lowerneck -15.738292918403948 -3.067109910417007 -1.7787979436898713
upperneck 19.17533228127191 -4.270444606594964 1.5022856906212172
head 8.592328584280203 -1.893802564981102 0.2460190682264778
lclavicle -8.383488573202902e-16 -2.720754979719835e-15
lhumerus -35.69094472978782 10.582352612325584 78.97675043720007
lradius 16.871922398883626
lwrist -2.7002884337870854
lhand -25.988280451919575 24.630646529417845
lfingers nan
lthumb 0.7107636934490107 54.93437979626751
rclavicle -4.470281756589468e-16 -2.296224067146121e-15
rhumerus -24.644610768182005 -15.328774065459957 -81.43419431746412
rradius 22.9652049714361
rwrist 1.7740366514201993
rhand -18.739862849143968 1.0
rfingers nan
rthumb 7.6770970380607615 -6.6552574366907535
97
root 0.10961416427198362 17.496056070515365 38.501830423966865 -2.259665589607727 -4.649200721777956 -5.62781552690698
lfemur -25.603912047408443 -3.318380945188766 -14.982041366618821
ltibia 26.948580826411785
lfoot -5.3280876229295115 -2.6561409039156585
ltoes -2.9206506291935996
rfemur 6.048349069905852 4.60248265056221 30.61887293814923
rtibia 42.07556874587849
rfoot -7.564560796624057 -1.328035540375235
rtoes 2.300174722172855
lowerback 1.0 2.1500863976844395 4.106056251477824
upperback 0.31652890722374494 3.4260061295831 1.6207797875833547
thorax -4.871418910137898 1.6721899126614004 -1.1807497857012368
lowerneck -15.6267190846288 -3.106940294299476 -1.8460337603253363
upperneck 19.32237806128721 -4.341231718828652 1.5689831291159015
head 8.613325785644841 -1.9245437016133322 0.27608270140023783
lclavicle -8.408498286980062e-16 -2.7022048864909174e-15
lhumerus -35.45532645560632 10.189525135809966 79.04827996379571
lradius 17.28647323825334
lwrist -1.7314507219287338
lhand -26.248216068287523 23.95586662125871
lfingers nan
lthumb 0.3678699000550103 54.13257078392879
rclavicle -4.4403560062656206e-16 -2.2808137814567447e-15
rhumerus -25.082074121220213 -15.879121303085078 -81.36645496413519
rradius 22.572833960366616
rwrist 2.4204949131405966
rhand -18.717541787315124 1.0
rfingers nan
rthumb 7.71685306929585 -6.734577866366511
98
root 0.18733586627638055 17.5387326647612 39.418812888963465 -3.208291714547534 -4.333713682286782 -4.416600787953092
lfemur -24.008510953349383 -2.378026682712215 -17.491969718407727
ltibia 30.272116516745626
lfoot -4.631930281770233 -3.517849119859836
ltoes -3.2589023808506266
rfemur 3.504113795866134 2.794768656637295 28.39078532634779
rtibia 49.39420776350629
rfoot -1.6388347600086588 -0.48330589310748984
rtoes 5.913827485234705
lowerback 1.0 2.107328020689929 2.9692238138491187
upperback 0.4204484652964474 3.187778961909402 1.306456373104842
thorax -4.926832732062083 1.5733937414799328 -0.8280664397190303
lowerneck -15.529103471346275 -3.10874269587637 -1.9264420439911865
upperneck 19.43057090074883 -4.3375002164414065 1.602719500563956
head 8.635329136540715 -1.9322437141867075 0.3031916848307588
lclavicle -8.163502655150826e-16 -2.6649242463575337e-15
lhumerus -34.98078772780422 9.525876520838644 79.2612084356167
lradius 17.970543068842233
lwrist -0.428001223342489
lhand -26.82902612486019 22.97649976533629
lfingers nan
lthumb -0.2585359130316526 53.05280581946405
rclavicle -4.0390691371879666e-16 -2.231540336850341e-15
rhumerus -25.715433716534967 -16.518823939433556 -81.27501171856335
rradius 22.220562654771253
rwrist 2.8096674146763045
rhand -18.661309238571953 1.0
rfingers nan
rthumb 7.759691999436226 -6.86087002537214
99
root 0.247763244248989 17.62010514526217 39.92120658355486 -4.01103053109845 -3.9701731049139886 -3.654601031378788
lfemur -21.764394217737248 -1.8891338302646368 -18.972193954501517
ltibia 32.283980273892595
lfoot -5.394686877809372 -3.543160669587091
ltoes -4.334320352794297
rfemur -0.17431986306703173 1.1228314988592016 26.550357858045178
rtibia 56.88250244323846
rfoot 4.1551375543374895 -0.962677445646686
rtoes 12.675709612886532
lowerback 1.0 1.9924264056893604 2.228347448291664
upperback 0.4753398306095912 2.9227369160425196 1.0750248052218305
thorax -5.054247369722083 1.4614302434708377 -0.48894264657352804
lowerneck -15.471039895716407 -3.081187654361888 -2.051188641604344
upperneck 19.504004569248725 -4.2681032421422485 1.6231710037936997
head 8.662662749236388 -1.9180912852397434 0.3339674184938915
lclavicle -8.228933753826657e-16 -2.653061300753711e-15
lhumerus -34.25911641049863 8.646259156509128 79.57158415330674
lradius 18.84037063585745
lwrist 0.8527361147446713
lhand -27.519416017498692 22.144865108774102
lfingers nan
lthumb -0.9359130997850038 52.19004640961316
rclavicle -4.0555751367227283e-16 -2.217276452927301e-15
rhumerus -26.380441827988367 -17.136963740808472 -81.20354858150132
rradius 21.90138924161909
rwrist 3.046037891894423
rhand -18.591302585079937 1.0
rfingers nan
rthumb 7.849193376301446 -6.935495214701703
